<?xml version="1.0" encoding="UTF-8" standalone="no"?>
<svg
   xmlns:dc="http://purl.org/dc/elements/1.1/"
   xmlns:cc="http://creativecommons.org/ns#"
   xmlns:rdf="http://www.w3.org/1999/02/22-rdf-syntax-ns#"
   xmlns:svg="http://www.w3.org/2000/svg"
   xmlns="http://www.w3.org/2000/svg"
   xmlns:sodipodi="http://sodipodi.sourceforge.net/DTD/sodipodi-0.dtd"
   xmlns:inkscape="http://www.inkscape.org/namespaces/inkscape"
   width="210mm"
   height="297mm"
   viewBox="0 0 210 297"
   version="1.1"
   id="svg2266"
   inkscape:version="1.0.1 (3bc2e813f5, 2020-09-07)"
   sodipodi:docname="Chef's Kiss mockup.svg">
  <defs
     id="defs2260" />
  <sodipodi:namedview
     id="base"
     pagecolor="#ffffff"
     bordercolor="#666666"
     borderopacity="1.0"
     inkscape:pageopacity="0.0"
     inkscape:pageshadow="2"
     inkscape:zoom="0.35370861"
     inkscape:cx="400"
     inkscape:cy="560"
     inkscape:document-units="mm"
     inkscape:current-layer="layer1"
     inkscape:document-rotation="0"
     showgrid="false"
     inkscape:window-width="1920"
     inkscape:window-height="1017"
     inkscape:window-x="-8"
     inkscape:window-y="-8"
     inkscape:window-maximized="1" />
  <metadata
     id="metadata2263">
    <rdf:RDF>
      <cc:Work
         rdf:about="">
        <dc:format>image/svg+xml</dc:format>
        <dc:type
           rdf:resource="http://purl.org/dc/dcmitype/StillImage" />
        <dc:title></dc:title>
      </cc:Work>
    </rdf:RDF>
  </metadata>
  <g
     inkscape:label="Layer 1"
     inkscape:groupmode="layer"
     id="layer1">
    <g
       id="g2226"
       transform="translate(257.23176,12.695497)">
      <g
         id="g2011"
         transform="matrix(-1.0098375,-0.03925485,-0.03925485,1.0098375,-34.758497,-8.6924759)">
        <path
           style="fill:none;stroke:#000000;stroke-width:0.264583px;stroke-linecap:butt;stroke-linejoin:miter;stroke-opacity:1"
           d="m 208.26801,107.79063 c 0,0 7.13135,-7.54475 5.89111,-13.074126 0,0 -2.48046,-11.57552 -71.31347,-3.72071"
           id="path853-9" />
        <path
           style="fill:none;stroke:#000000;stroke-width:0.264583px;stroke-linecap:butt;stroke-linejoin:miter;stroke-opacity:1"
           d="m 142.84566,90.995794 c 0,0 -0.76936,10.417946 0.76536,11.514176 0.24433,0.17452 0.8869,0.37312 1.88081,0.57133 5.24922,1.04678 20.29848,2.08252 38.24095,-0.49825 0,0 10.04494,-1.86253 24.53523,5.20758"
           id="path855-2"
           sodipodi:nodetypes="csscc" />
        <path
           style="fill:none;stroke:#000000;stroke-width:0.264583px;stroke-linecap:butt;stroke-linejoin:miter;stroke-opacity:1"
           d="m 145.43805,103.09462 c 0,0 -8.32505,-3.121886 -14.82915,5.2303 -1.76211,2.26281 -3.39057,5.36781 -4.68361,9.60525"
           id="path857-4"
           sodipodi:nodetypes="csc" />
        <path
           style="fill:none;stroke:#000000;stroke-width:0.264583px;stroke-linecap:butt;stroke-linejoin:miter;stroke-opacity:1"
           d="m 125.92529,117.93017 c 0,0 -95.517538,2.7771 -117.5881577,-18.124216 0,0 24.4092297,-9.93908 121.1691577,-8.18513"
           id="path859-2" />
        <path
           style="fill:none;stroke:#000000;stroke-width:0.264583px;stroke-linecap:butt;stroke-linejoin:miter;stroke-opacity:1"
           d="m 129.50629,91.620824 0.76397,-0.0358 12.5754,-0.58923"
           id="path863-3"
           sodipodi:nodetypes="ccc" />
        <path
           style="fill:none;stroke:#000000;stroke-width:0.264583px;stroke-linecap:butt;stroke-linejoin:miter;stroke-opacity:1"
           d="m 130.34672,108.64882 c 0,0 2.11936,-10.852606 0.10964,-17.137616"
           id="path867-8" />
        <circle
           style="opacity:1;fill:#b3b3b3;stroke-width:1.565;stroke-linecap:round;stroke-miterlimit:9.3;paint-order:stroke fill markers"
           id="path875-3"
           cx="151.83266"
           cy="95.969177"
           r="2.2289863" />
        <circle
           style="opacity:1;fill:#b3b3b3;stroke-width:1.565;stroke-linecap:round;stroke-miterlimit:9.3;paint-order:stroke fill markers"
           id="circle879-4"
           cx="178.36125"
           cy="95.054306"
           r="2.2289863" />
        <circle
           style="opacity:1;fill:#b3b3b3;stroke-width:1.565;stroke-linecap:round;stroke-miterlimit:9.3;paint-order:stroke fill markers"
           id="circle881-6"
           cx="203.44847"
           cy="96.390076"
           r="2.2289863" />
        <path
           style="opacity:1;fill:#1a1a1a;stroke:#4d4d4d;stroke-width:0.86455;stroke-linecap:round;stroke-miterlimit:9.3;paint-order:stroke fill markers"
           d="m 206.37861,106.69878 c -7.97306,-3.66095 -16.49719,-5.16221 -23.76154,-4.18487 -6.9697,0.9377 -11.63822,1.29129 -18.84497,1.42731 -8.15374,0.15389 -16.59488,-0.44381 -19.39743,-1.3735 -0.73892,-0.24512 -0.78438,-0.29055 -1.02914,-1.02838 -0.34857,-1.05069 -0.55552,-4.224866 -0.46266,-7.095816 0.0421,-1.30001 0.10687,-2.56681 0.14402,-2.8151 l 0.0675,-0.45144 1.64214,-0.17907 c 9.88631,-1.07809 17.85262,-1.74638 26.63602,-2.23447 4.54901,-0.25278 19.25363,-0.254 22.36293,-0.002 10.48673,0.85045 16.81834,2.47632 19.37152,4.97434 0.78298,0.76607 0.85468,0.89173 0.94869,1.66298 0.26345,2.16153 -0.84603,5.216746 -3.12568,8.607176 -1.05354,1.56692 -2.59789,3.50526 -2.77199,3.47921 -0.0542,-0.008 -0.85495,-0.36205 -1.77943,-0.78653 z m -1.68679,-8.383076 c 0.96398,-0.56299 1.31685,-2.07422 0.72495,-3.10479 -0.31424,-0.54715 -1.34879,-1.15785 -1.96143,-1.15785 -0.72308,0 -1.65571,0.60787 -2.00972,1.3099 -0.1809,0.35869 -0.32888,0.82161 -0.32888,1.02871 0,0.2071 0.14798,0.67002 0.32888,1.02871 0.60941,1.20851 2.03615,1.60202 3.2462,0.89532 z m -51.86799,-0.30219 c 1.34837,-0.61237 1.70598,-2.40786 0.70109,-3.52015 -1.13319,-1.25429 -2.95926,-1.03767 -3.71335,0.44051 -0.52202,1.02323 -0.28006,2.14301 0.60764,2.81219 0.79807,0.6016 1.49752,0.6794 2.40462,0.26745 z m 26.71857,-1.01513 c 0.74443,-0.42445 1.03844,-0.96866 1.03844,-1.92218 0,-0.63613 -0.0773,-0.95906 -0.30136,-1.25918 -0.77428,-1.03705 -1.81089,-1.32122 -2.89867,-0.79463 -0.83958,0.40642 -1.25793,1.0612 -1.25793,1.9687 0,0.83038 0.28127,1.41285 0.91334,1.89137 0.75586,0.57224 1.63459,0.61288 2.50618,0.11592 z"
           id="path883-6" />
        <path
           style="opacity:1;fill:#1a1a1a;stroke-width:0.152832;stroke-linecap:round;stroke-miterlimit:9.3;paint-order:stroke fill markers"
           d="m 159.00912,104.03834 c -4.97953,-0.10984 -8.67725,-0.36513 -11.7693,-0.81258 -1.08058,-0.15637 -1.61208,-0.25726 -2.42879,-0.46107 -0.8059,-0.20111 -1.0286,-0.28648 -1.19825,-0.45932 -0.61158,-0.62309 -0.90429,-3.460586 -0.79116,-7.669576 0.0366,-1.35987 0.13978,-3.4664 0.17151,-3.49985 0.0124,-0.0131 1.97334,-0.23435 4.00124,-0.4514 9.58133,-1.02548 18.33885,-1.7106 26.1095,-2.04257 2.96852,-0.12682 6.50635,-0.21976 8.37803,-0.2201 l 0.94957,-1.7e-4 v 0.0646 c 0,0.0355 -0.003,0.0651 -0.006,0.0656 -0.003,5.2e-4 -1.31453,0.0118 -2.91325,0.0249 -4.50014,0.037 -6.68306,0.0908 -8.94003,0.22027 -8.48016,0.48665 -15.90149,1.11347 -25.55399,2.15833 -1.91053,0.20681 -1.93781,0.21002 -1.93834,0.22815 -2.6e-4,0.009 -0.0175,0.12619 -0.0383,0.2612 -0.0408,0.26416 -0.0991,1.15274 -0.14247,2.17041 -0.14611,3.42758 0.0573,6.848146 0.47934,8.060606 0.20606,0.59196 0.2916,0.67182 0.9551,0.89144 1.0388,0.34386 2.83604,0.6504 5.2193,0.89021 5.05494,0.50865 11.31869,0.64288 18.15134,0.38899 4.83878,-0.1798 9.02523,-0.53873 14.02707,-1.20264 0.37489,-0.0498 0.68805,-0.084 0.69591,-0.0762 0.0334,0.0334 -0.0483,0.0604 -0.26649,0.0882 -3.09076,0.3936 -4.8451,0.58641 -7.18301,0.78942 -3.33473,0.28958 -6.10728,0.44917 -9.70225,0.55845 -0.83076,0.0253 -5.51706,0.0512 -6.26578,0.0347 z"
           id="path885-0" />
        <path
           style="opacity:1;fill:#1a1a1a;stroke-width:0.00675428;stroke-linecap:round;stroke-miterlimit:9.3;paint-order:stroke fill markers"
           d="m 151.3207,103.68814 c -0.003,-2.2e-4 -0.0373,-0.003 -0.0794,-0.007 -0.70143,-0.0575 -1.5403,-0.13857 -2.21017,-0.21355 -0.12179,-0.0136 -0.16751,-0.0188 -0.17214,-0.0194 l -0.005,-6.6e-4 v -0.006 c 0,-0.005 0,-0.006 0.003,-0.006 0,0 0.0407,0.004 0.0876,0.01 0.45519,0.052 0.9815,0.1066 1.42016,0.14721 0.0169,0.002 0.0529,0.005 0.0799,0.007 0.22352,0.0208 0.48236,0.0434 0.7308,0.064 0.076,0.006 0.14087,0.0117 0.14417,0.0121 l 0.006,6.9e-4 v 0.006 c 0,0.003 0,0.006 0,0.005 0,-9e-5 -0.003,-3.4e-4 -0.004,-5.8e-4 z"
           id="path887-0" />
        <path
           style="opacity:1;fill:#1a1a1a;stroke-width:0.00675428;stroke-linecap:round;stroke-miterlimit:9.3;paint-order:stroke fill markers"
           d="m 151.29842,103.61396 c -0.0101,-8.4e-4 -0.0504,-0.004 -0.0896,-0.007 -0.70863,-0.0572 -1.44385,-0.12568 -2.07766,-0.19358 -0.0886,-0.009 -0.25186,-0.0273 -0.26604,-0.0291 -0.005,-6e-4 -0.01,-0.001 -0.0101,-0.001 0,0 0,-0.002 0,-0.005 v -0.005 l 0.005,6.9e-4 c 0.006,7.7e-4 0.14837,0.0164 0.24524,0.0269 0.0844,0.009 0.19889,0.0212 0.28776,0.0303 0.0399,0.004 0.0848,0.009 0.0999,0.0103 0.48553,0.0501 1.1359,0.10872 1.74339,0.15717 l 0.0899,0.007 v 0.005 0.005 l -0.004,-1.4e-4 c -0.003,-8e-5 -0.0124,-8.4e-4 -0.0225,-0.002 z"
           id="path889-5" />
        <path
           style="opacity:1;fill:#1a1a1a;stroke-width:0.00611328;stroke-linecap:round;stroke-miterlimit:9.3;paint-order:stroke fill markers"
           d="m 151.15724,103.60202 c -0.019,-0.002 -0.0607,-0.005 -0.0925,-0.008 -0.61539,-0.0506 -1.31207,-0.11576 -1.85674,-0.17365 -0.12832,-0.0136 -0.24667,-0.0264 -0.24881,-0.0269 -0.003,-4.2e-4 -0.003,-10e-4 -0.003,-0.004 v -0.004 l 0.007,8.2e-4 c 0.23545,0.0261 0.61201,0.065 0.87257,0.0902 0.36716,0.0355 0.87837,0.0808 1.25505,0.11113 0.0493,0.004 0.0922,0.007 0.0955,0.008 l 0.006,6.4e-4 v 0.005 c 0,0.003 0,0.004 0,0.004 0,-6e-5 -0.0164,-0.001 -0.0354,-0.003 z"
           id="path891-1" />
        <path
           style="opacity:1;fill:#1a1a1a;stroke-width:0.00611328;stroke-linecap:round;stroke-miterlimit:9.3;paint-order:stroke fill markers"
           d="m 151.16243,103.60247 c -0.0161,-10e-4 -0.0855,-0.007 -0.15402,-0.0128 -0.3334,-0.0277 -0.8265,-0.0716 -1.02729,-0.0915 -0.009,-8.8e-4 -0.0169,-0.001 -0.0183,-9.8e-4 0,3.2e-4 -0.003,2.1e-4 -0.003,-2.5e-4 0,-4.8e-4 -0.006,-10e-4 -0.0143,-0.002 -0.0476,-0.004 -0.28435,-0.0275 -0.42865,-0.0421 -0.22797,-0.023 -0.55886,-0.0582 -0.56021,-0.0596 0,-3.5e-4 0,-0.002 0,-0.004 v -0.003 l 0.045,0.005 c 0.36996,0.0403 0.95678,0.0997 0.95935,0.0971 0,-4.3e-4 -0.0106,-0.002 -0.0243,-0.003 -0.098,-0.009 -0.40146,-0.0392 -0.5687,-0.0566 -0.12782,-0.0133 -0.34086,-0.036 -0.39198,-0.0418 -0.01,-10e-4 -0.0183,-0.002 -0.0188,-0.002 0,0 0,-0.0649 0,-0.19379 v -0.19378 h 1.11828 1.11826 v 0.29898 0.29898 l -0.023,-0.002 c -0.36174,-0.0289 -0.88324,-0.0744 -1.16994,-0.10212 -0.0331,-0.003 -0.0377,-0.004 -0.0366,-0.002 0,7.4e-4 0.0424,0.005 0.22603,0.0216 0.30152,0.0276 0.64122,0.057 0.9021,0.078 0.0493,0.004 0.0922,0.007 0.0955,0.008 l 0.006,6.3e-4 v 0.005 c 0,0.003 0,0.004 0,0.004 0,-7e-5 -0.014,-0.001 -0.0302,-0.003 z"
           id="path895-3" />
        <path
           style="opacity:1;fill:#1a1a1a;stroke-width:0.00611328;stroke-linecap:round;stroke-miterlimit:9.3;paint-order:stroke fill markers"
           d="m 151.10713,103.65833 c -0.3247,-0.0278 -0.46612,-0.0403 -0.67749,-0.0599 -0.5088,-0.0472 -0.90056,-0.0875 -1.45288,-0.14949 l -0.0198,-0.002 v -0.0257 c 0,-0.0198 0,-0.0257 0,-0.0256 0,1e-5 0.007,6.9e-4 0.0143,0.002 0.0273,0.003 0.18455,0.0201 0.293,0.0315 0.2028,0.0213 0.4385,0.0449 0.69609,0.0696 0.0196,0.002 0.0358,0.003 0.0361,0.003 2.4e-4,-1.8e-4 1.9e-4,-5.8e-4 -1e-4,-8.7e-4 0,-2.9e-4 -0.0222,-0.003 -0.049,-0.005 -0.28536,-0.0273 -0.52761,-0.0517 -0.76989,-0.0776 -0.15028,-0.016 -0.22053,-0.0238 -0.22116,-0.0244 0,-3.5e-4 0,-0.002 0,-0.004 v -0.004 l 0.0594,0.006 c 0.2858,0.0312 0.64895,0.0684 0.86971,0.0892 0.0364,0.003 0.0682,0.006 0.0707,0.007 0.003,3.2e-4 0.004,1.7e-4 0.004,-3.7e-4 0,-5.1e-4 -0.0167,-0.002 -0.0356,-0.004 -0.25516,-0.0241 -0.66384,-0.0659 -0.92045,-0.0942 -0.0257,-0.003 -0.0469,-0.005 -0.0473,-0.005 0,0 0,-0.0872 0,-0.19378 v -0.19379 h 1.11829 1.11826 v 0.29898 0.29898 l -0.023,-0.002 c -0.33906,-0.0271 -0.71789,-0.0599 -1.07706,-0.0934 -0.0733,-0.007 -0.0916,-0.008 -0.0821,-0.006 0.003,2.9e-4 0.0156,0.002 0.0319,0.003 0.0161,0.001 0.0827,0.008 0.1478,0.0135 0.12036,0.011 0.13036,0.0119 0.26302,0.0237 0.22085,0.0196 0.50692,0.0438 0.69506,0.0589 0.018,0.001 0.0352,0.003 0.0385,0.003 l 0.006,6.3e-4 v 0.005 0.005 l -0.004,-5.3e-4 c -0.003,-2.9e-4 -0.0299,-0.003 -0.0618,-0.005 -0.30089,-0.0243 -0.73795,-0.0626 -1.05926,-0.093 -0.06,-0.006 -0.0666,-0.006 -0.0655,-0.005 0.003,0.002 0.41521,0.0393 0.69945,0.064 0.17251,0.0149 0.48268,0.0409 0.48887,0.0409 0.003,0 0.003,8e-4 0.003,0.0295 v 0.0295 l -0.005,-1.4e-4 c -0.003,-7e-5 -0.0393,-0.003 -0.0814,-0.007 z m -1.10122,-0.16661 c 0,-9.8e-4 -0.0412,-0.005 -0.0421,-0.004 0,3.4e-4 -2.1e-4,6.6e-4 0,6.9e-4 0,3e-5 0.009,9e-4 0.0191,0.002 0.0222,0.002 0.0228,0.002 0.0228,0.001 z"
           id="path897-3" />
        <path
           style="opacity:1;fill:#cccccc;stroke:#4d4d4d;stroke-width:1.10662;stroke-linecap:round;stroke-linejoin:round;stroke-miterlimit:9.3;paint-order:stroke fill markers"
           d="m 130.82264,107.16697 c 0.0665,-0.33251 0.25635,-1.88116 0.42188,-3.44143 0.34869,-3.28669 0.26601,-8.838606 -0.16,-10.741356 -0.14398,-0.64312 -0.25503,-1.17232 -0.24672,-1.176 0.0338,-0.015 10.89559,-0.54633 11.2499,-0.55029 0.37562,-0.004 0.382,0.066 0.30458,3.34609 -0.0771,3.26852 0.16439,6.634646 0.52433,7.307186 0.16023,0.2994 0.0103,0.33699 -1.73469,0.43517 -1.05055,0.0591 -2.41522,0.24296 -3.0326,0.40857 -2.26348,0.60716 -4.89064,2.24234 -6.62368,4.12268 l -0.82392,0.89395 z"
           id="path935-3" />
        <path
           style="opacity:1;fill:#cccccc;stroke:#4d4d4d;stroke-width:0.782703;stroke-linecap:round;stroke-linejoin:round;stroke-miterlimit:9.3;stroke-dasharray:none;paint-order:stroke fill markers"
           d="m 106.56201,117.80038 c -4.16057,-0.0547 -12.938968,-0.31276 -17.396348,-0.51141 -41.48125,-1.84862 -69.12483,-7.70397 -79.9008997,-16.92424 l -0.52591,-0.449976 0.39361,-0.15133 c 4.0806797,-1.56886 16.7805797,-3.83383 28.5055897,-5.08384 19.5789,-2.08732 40.77656,-3.01143 69.386978,-3.02494 15.83886,-0.007 23.40303,0.10844 23.3076,0.35716 -0.0321,0.0836 0.0243,0.53798 0.1252,1.00976 0.45437,2.12367 0.45043,8.481926 -0.007,12.183726 -0.35436,2.8643 -0.55634,3.63862 -1.25571,4.81365 -1.41759,2.38177 -2.00938,3.63891 -2.8647,6.08542 l -0.55501,1.5875 -3.02491,0.0819 c -2.88345,0.078 -11.23558,0.0918 -16.18794,0.0267 z"
           id="path937-8" />
        <path
           style="fill:none;fill-opacity:1;stroke:#4d4d4d;stroke-width:0.26222;stroke-linecap:butt;stroke-linejoin:round;stroke-miterlimit:4;stroke-dasharray:none;stroke-opacity:1"
           d="m 143.90145,90.796725 -1.90971,0.03384"
           id="path2199" />
        <path
           style="fill:none;stroke:#4d4d4d;stroke-width:0.313261px;stroke-linecap:round;stroke-linejoin:round;stroke-opacity:1"
           d="m 131.36291,91.397141 -4.09758,0.230989"
           id="path2201" />
      </g>
      <text
         xml:space="preserve"
         style="font-size:57.3181px;line-height:1.25;font-family:sans-serif;letter-spacing:0px;fill:#aa0000;stroke-width:1.43296"
         x="-238.53513"
         y="111.19719"
         id="text2137"><tspan
           sodipodi:role="line"
           id="tspan2135"
           x="-238.53513"
           y="111.19719"
           style="font-style:normal;font-variant:normal;font-weight:normal;font-stretch:normal;font-family:'Foxlite Script';-inkscape-font-specification:'Foxlite Script';fill:#aa0000;stroke-width:1.43296"
           dx="0 0 0 0 0 -4.2091484 0 -7.6290817">Chef's Kiss</tspan></text>
    </g>
  </g>
</svg>
